<svg width="94" height="64" fill="none" xmlns="http://www.w3.org/2000/svg"><g clip-path="url(#a)"><path d="M0 22.905V7.871a.75.75 0 0 1 .75-.75h3.515a.75.75 0 0 1 .75.75v14.698c0 1.637.415 2.883 1.245 3.735.83.853 1.985 1.28 3.466 1.28 1.436 0 2.57-.438 3.4-1.313.83-.875 1.245-2.11 1.245-3.702V7.87a.75.75 0 0 1 .75-.75h3.548a.75.75 0 0 1 .75.75v15.034c0 3.119-.92 5.486-2.76 7.101-1.817 1.616-4.128 2.423-6.933 2.423-2.804 0-5.127-.807-6.966-2.423C.92 28.391 0 26.024 0 22.906ZM26.938 7.164a.75.75 0 0 1 .75.75v23.828a.75.75 0 0 1-.75.75H23.69a.75.75 0 0 1-.75-.75V7.914a.75.75 0 0 1 .75-.75h3.247ZM45.274 30.276c-1.48 1.436-3.533 2.154-6.159 2.154-2.625 0-4.689-.718-6.192-2.154-1.48-1.459-2.221-3.467-2.221-6.024V14.4a.75.75 0 0 1 .75-.75h3.246a.75.75 0 0 1 .75.75v9.852c0 1.166.325 2.097.975 2.793.65.695 1.548 1.043 2.692 1.043 1.145 0 2.042-.348 2.693-1.043.65-.696.976-1.627.976-2.793V14.4a.75.75 0 0 1 .75-.75h3.246a.75.75 0 0 1 .75.75v9.852c0 2.58-.752 4.588-2.256 6.024ZM56.66 32.463c-2.967 0-5.36-1.022-7.18-3.065a.715.715 0 0 1 .002-.937l1.552-1.841c.3-.358.85-.353 1.188-.03.51.487 1.08.897 1.712 1.228.92.45 1.84.673 2.76.673.718 0 1.312-.168 1.783-.504.494-.337.74-.763.74-1.28 0-.65-.437-1.177-1.312-1.581-.27-.112-.998-.393-2.187-.841-1.055-.382-1.84-.707-2.356-.976-2.11-1.01-3.164-2.592-3.164-4.746 0-1.593.629-2.916 1.885-3.97 1.234-1.033 2.894-1.55 4.98-1.55 2.37 0 4.359.726 5.966 2.177a.709.709 0 0 1 .07.96l-1.456 1.893c-.271.352-.785.39-1.138.118-1.105-.851-2.297-1.277-3.576-1.277-.606 0-1.11.157-1.514.471-.382.292-.572.651-.572 1.077 0 .763.538 1.324 1.615 1.683 2.4.898 3.87 1.492 4.409 1.784 2.064 1.077 3.096 2.625 3.096 4.644 0 1.728-.673 3.141-2.02 4.24-1.3 1.1-3.062 1.65-5.283 1.65ZM70.966 31.742a.75.75 0 0 1-.75.75h-3.245a.75.75 0 0 1-.75-.75V7.914a.75.75 0 0 1 .75-.75h3.111a.75.75 0 0 1 .75.75v8.625c.493-.852 1.267-1.548 2.322-2.086 1.054-.539 2.21-.808 3.466-.808 1.975 0 3.657.662 5.049 1.986 1.39 1.324 2.086 3.208 2.086 5.654v10.457a.75.75 0 0 1-.75.75H79.76a.75.75 0 0 1-.75-.75v-9.178c0-1.436-.347-2.547-1.043-3.332-.673-.808-1.604-1.212-2.793-1.212-1.256 0-2.277.438-3.062 1.313-.763.852-1.145 1.963-1.145 3.332v9.077ZM48.814 55.167c.34-.135.748-.028.914.299.135.266.067.597-.195.741-.498.274-1.076.411-1.734.411-.854 0-1.502-.262-1.945-.787-.442-.535-.663-1.297-.663-2.285v-4.199h-.873a.594.594 0 1 1 0-1.188h.888V45.92a.68.68 0 0 1 1.358 0v2.239h2.355a.594.594 0 1 1 0 1.188h-2.354v4.338c0 1.112.452 1.667 1.358 1.667.283 0 .58-.061.891-.185ZM52.089 55.73a.687.687 0 0 1-1.374 0v-6.923a.648.648 0 0 1 1.297 0v.586c.473-.967 1.27-1.45 2.392-1.45.13 0 .267.008.41.025.317.037.526.335.496.653-.037.406-.441.663-.849.65l-.072-.001c-.69 0-1.245.237-1.667.71-.422.463-.633 1.127-.633 1.991v3.76ZM62.33 49.378v-.556a.664.664 0 1 1 1.328 0v6.932a.664.664 0 1 1-1.328 0v-.525c-.751.926-1.734 1.389-2.948 1.389-1.194 0-2.182-.417-2.964-1.25-.782-.844-1.173-1.889-1.173-3.134 0-1.245.39-2.264 1.173-3.056.782-.813 1.77-1.22 2.964-1.22 1.204 0 2.186.473 2.948 1.42Zm.108 2.902c0-.844-.273-1.564-.818-2.16-.535-.598-1.235-.896-2.1-.896-.864 0-1.564.298-2.099.895-.525.587-.787 1.312-.787 2.177 0 .854.262 1.58.787 2.176.546.587 1.245.88 2.1.88.854 0 1.553-.293 2.099-.88.545-.607.818-1.337.818-2.192ZM68.691 54.457l2.404-5.872a.685.685 0 1 1 1.261.537l-3.03 6.857a.71.71 0 0 1-1.3 0L65 49.132a.693.693 0 1 1 1.275-.544l2.416 5.87ZM80.966 52.141c0 .114-.016.355-.047.726h-6.622c.123.751.432 1.348.926 1.79.494.443 1.173.664 2.038.664.483 0 .988-.087 1.513-.262a5.96 5.96 0 0 0 .813-.33c.328-.165.745-.07.923.253.147.267.08.604-.18.762-.335.202-.72.38-1.155.534a6.023 6.023 0 0 1-1.945.325c-.988 0-1.822-.217-2.5-.649-.68-.432-1.164-.962-1.452-1.59a5.042 5.042 0 0 1-.432-2.1c0-1.244.386-2.274 1.158-3.087.771-.813 1.77-1.219 2.994-1.219 1.163 0 2.115.376 2.856 1.127.741.751 1.112 1.77 1.112 3.056Zm-2.223-2.269c-.463-.442-1.045-.664-1.745-.664-.7 0-1.296.227-1.79.68-.494.442-.798 1.024-.911 1.744h5.218c-.042-.73-.299-1.317-.772-1.76ZM82.986 44.731c.38 0 .687.308.687.687V55.73a.687.687 0 0 1-1.374 0V45.418c0-.379.307-.687.687-.687Z" fill="#F8F9FA"/><path fill-rule="evenodd" clip-rule="evenodd" d="M52.47 1a1 1 0 0 1 1-1h20.176c11.212 0 20.301 9.09 20.301 20.301 0 11.212-9.09 20.301-20.301 20.301h-24.19c-5.866 0-10.62 4.754-10.62 10.62 0 5.864 4.754 10.618 10.62 10.618H62.87a1 1 0 1 1 0 1.999H49.455c-6.968 0-12.618-5.65-12.618-12.618 0-6.969 5.65-12.618 12.618-12.618h24.19c10.109 0 18.303-8.194 18.303-18.302 0-10.108-8.194-18.302-18.302-18.302H53.47a1 1 0 0 1-1-1Z" fill="#F8F9FA"/><path fill-rule="evenodd" clip-rule="evenodd" d="M52.47 1a1 1 0 0 1 1-1h20.176c11.212 0 20.301 9.09 20.301 20.301 0 11.212-9.09 20.301-20.301 20.301h-24.19c-5.866 0-10.62 4.754-10.62 10.62 0 5.864 4.754 10.618 10.62 10.618H62.87a1 1 0 1 1 0 1.999H49.455c-6.968 0-12.618-5.65-12.618-12.618 0-6.969 5.65-12.618 12.618-12.618h24.19c10.109 0 18.303-8.194 18.303-18.302 0-10.108-8.194-18.302-18.302-18.302H53.47a1 1 0 0 1-1-1Z" fill="url(#b)"/></g><defs><linearGradient id="b" x1="65.362" y1=".035" x2="65.362" y2="74.832" gradientUnits="userSpaceOnUse"><stop stop-color="#FF971C"/><stop offset="1" stop-color="#ED3B02"/></linearGradient><clipPath id="a"><path fill="#fff" d="M0 0h94v63.923H0z"/></clipPath></defs></svg>